{"title":"Naruto Shippuden Episode 279 - With English Subtitle [Jazz_Singh","uid":7631237,"size":39494775,"categoryP":"video","categoryS":"other","magnet":"?xt=urn:btih:7f5145e47f60c2d17e4d70aac20467b63bbf8019&amp;dn=Naruto+Shippuden+Episode+279+-+With+English+Subtitle+%5BJazz_Singh&amp;tr=udp%3A%2F%2Ftracker.openbittorrent.com%3A80&amp;tr=udp%3A%2F%2Fopen.demonii.com%3A1337&amp;tr=udp%3A%2F%2Ftracker.coppersurfer.tk%3A6969&amp;tr=udp%3A%2F%2Fexodus.desync.com%3A6969","seeders":0,"leechers":1,"uploader":"jazzsingh","files":10,"time":1347544139,"description":"Naruto Shippuden Episode 279\n\n\nTitle: The White Zetsu's Trap\n\nRelease date : September 13th, 2012\n\nAudio language : Japanese\n\nSubTitle language : English\n\n\nGeneral\n\nFormat : MPEG-4\nFormat profile : Base Media / Version 2\nCodec ID : mp42\nFile size : 37.7 MiB\nDuration : 23mn 9s\nOverall bit rate mode : Variable\nOverall bit rate : 227 Kbps\nEncoded date : UTC 2012-09-13 11:02:49\nTagged date : UTC 2012-09-13 11:04:28\nWriting application : HandBrake 0.9.8 2012071700\n\n\nVideo\n\nFormat : AVC\nFormat/Info : Advanced Video Codec\nFormat profile : &lt;a class=&quot;__cf_email__&quot; href=&quot;/cdn-cgi/l/email-protection&quot; data-cfemail=&quot;c78aa6aea9878bf5e9f5&quot;&gt;[email&amp;#160;protected]&lt;/a&gt;&lt;script cf-hash='f9e31' type=&quot;text/javascript&quot;&gt;\n/* &lt;![CDATA[ */!function(){try{var t=&quot;currentScript&quot;in document?document.currentScript:function(){for(var t=document.getElementsByTagName(&quot;script&quot;),e=t.length;e--;)if(t[e].getAttribute(&quot;cf-hash&quot;))return t[e]}();if(t&amp;&amp;t.previousSibling){var e,r,n,i,c=t.previousSibling,a=c.getAttribute(&quot;data-cfemail&quot;);if(a){for(e=&quot;&quot;,r=parseInt(a.substr(0,2),16),n=2;a.length-n;n+=2)i=parseInt(a.substr(n,2),16)^r,e+=String.fromCharCode(i);e=document.createTextNode(e),c.parentNode.replaceChild(e,c)}}}catch(u){}}();/* ]]&gt; */&lt;/script&gt;\nFormat settings, CABAC : Yes\nFormat settings, ReFrames : 1 frame\nCodec ID : avc1\nCodec ID/Info : Advanced Video Coding\nDuration : 23mn 9s\nBit rate mode : Variable\nBit rate : 161 Kbps\nWidth : 640 pixels\nHeight : 352 pixels\nDisplay aspect ratio : 16:9\nOriginal display aspect ratio : 16:9\nFrame rate mode : Constant\nFrame rate : 15.000 fps\nColor space : YUV\nChroma subsampling : 4:2:0\nBit depth : 8 bits\nScan type : Progressive\nBits/(Pixel*Frame) : 0.048\nStream size : 26.7 MiB (71%)\nWriting library : x264 core 120\n\n\nAudio\n\nFormat : AAC\nFormat/Info : Advanced Audio Codec\nFormat profile : LC\nCodec ID : 40\nDuration : 23mn 9s\nBit rate mode : Variable\nBit rate : 63.8 Kbps\nMaximum bit rate : 120 Kbps\nChannel(s) : 2 channels\nChannel positions : Front: L R\nSampling rate : 44.1 KHz\nCompression mode : Lossy\nStream size : 10.6 MiB (28%)\nEncoded date : UTC 2012-09-13 11:02:49\nTagged date : UTC 2012-09-13 11:04:27\n","torrent":{"xt":"urn:btih:7f5145e47f60c2d17e4d70aac20467b63bbf8019","amp;dn":"Naruto+Shippuden+Episode+279+-+With+English+Subtitle+%5BJazz_Singh","amp;tr":["udp%3A%2F%2Ftracker.openbittorrent.com%3A80","udp%3A%2F%2Fopen.demonii.com%3A1337","udp%3A%2F%2Ftracker.coppersurfer.tk%3A6969","udp%3A%2F%2Fexodus.desync.com%3A6969"],"infoHash":"7f5145e47f60c2d17e4d70aac20467b63bbf8019","infoHashBuffer":{"type":"Buffer","data":[127,81,69,228,127,96,194,209,126,77,112,170,194,4,103,182,59,191,128,25]},"announce":[],"urlList":[]}}